<?xml version="1.0" standalone="no"?>
<!DOCTYPE svg PUBLIC "-//W3C//DTD SVG 20010904//EN"
 "http://www.w3.org/TR/2001/REC-SVG-20010904/DTD/svg10.dtd">
<svg version="1.0" xmlns="http://www.w3.org/2000/svg"
 width="300.000000pt" height="176.000000pt" viewBox="0 0 300.000000 176.000000"
 preserveAspectRatio="xMidYMid meet">
<metadata>
Created by potrace 1.10, written by Peter Selinger 2001-2011
</metadata>
<g transform="translate(0.000000,176.000000) scale(0.100000,-0.100000)"
fill="#000000" stroke="none">
<path d="M1363 1510 c-24 -5 -59 -17 -79 -26 -49 -23 -131 -106 -150 -150 -11
-27 -19 -34 -32 -29 -44 17 -115 24 -165 15 -140 -23 -233 -102 -274 -235 -13
-40 -25 -61 -43 -70 -42 -22 -110 -97 -138 -150 -22 -42 -26 -67 -30 -161 -4
-109 -4 -112 18 -119 35 -11 44 9 46 102 2 130 38 201 134 265 56 38 70 55 70
85 0 61 75 159 153 200 46 24 169 24 224 -1 23 -10 48 -16 56 -13 7 3 19 24
26 47 15 51 69 112 130 148 40 23 57 27 126 27 128 -1 203 -50 255 -168 11
-25 25 -49 30 -52 6 -4 35 3 66 14 160 60 327 -30 366 -197 9 -42 18 -56 40
-68 50 -26 109 -86 136 -138 20 -41 27 -70 31 -151 6 -93 8 -100 28 -103 35
-5 47 30 40 123 -10 139 -64 240 -162 301 -35 23 -46 37 -51 64 -15 81 -88
174 -171 217 -74 39 -201 47 -274 19 -10 -5 -20 4 -32 28 -61 130 -227 207
-374 176z m-4 -43 c-10 -8 -89 -35 -89 -31 0 7 84 43 89 38 2 -2 2 -5 0 -7z
m-152 -96 c-19 -21 -41 -55 -48 -75 -13 -37 -37 -46 -69 -26 -12 8 -9 10 11
10 25 0 52 21 60 47 6 18 63 83 73 83 4 0 -7 -17 -27 -39z m532 -76 c9 -5 25
-12 35 -15 17 -5 16 -7 -7 -17 -25 -12 -27 -10 -57 41 -34 60 -42 90 -9 36 12
-19 29 -39 38 -45z"/>
<path d="M1375 1201 c-23 -10 -49 -31 -59 -46 -21 -32 -31 -94 -18 -114 16
-22 50 -4 57 32 9 42 30 64 66 72 40 9 74 -15 89 -62 16 -49 23 -56 49 -48 16
5 21 15 21 38 0 51 -31 99 -80 125 -53 27 -73 27 -125 3z"/>
<path d="M1864 1050 c-40 -9 -72 -32 -95 -67 -16 -24 -19 -49 -19 -169 0 -165
-9 -200 -56 -220 -55 -23 -94 1 -111 66 -7 28 -14 35 -34 35 -48 0 -35 -86 22
-140 41 -40 120 -46 169 -13 60 40 70 73 70 236 0 144 6 174 39 199 26 20 68
15 98 -11 l28 -24 2 -173 c3 -178 8 -203 41 -183 15 10 17 33 20 186 2 167 2
176 -20 208 -42 61 -93 84 -154 70z"/>
<path d="M921 972 c-68 -34 -76 -55 -79 -227 -3 -147 -3 -153 17 -160 12 -3
25 -3 31 0 6 4 10 57 10 129 0 163 9 187 81 209 27 9 77 -23 88 -55 6 -17 11
-65 11 -107 0 -84 18 -126 65 -157 40 -26 127 -15 164 20 37 36 55 100 34 121
-26 26 -45 15 -59 -35 -19 -67 -98 -80 -129 -20 -10 19 -15 57 -15 113 0 71
-4 89 -22 117 -45 65 -129 87 -197 52z"/>
<path d="M176 411 c-50 -52 -33 -148 32 -172 47 -18 135 12 118 40 -5 8 -13 7
-29 -4 -72 -51 -153 39 -101 113 18 27 88 32 98 7 7 -19 36 -20 36 -2 0 27
-36 47 -81 47 -37 0 -50 -5 -73 -29z"/>
<path d="M390 425 c0 -8 5 -15 10 -15 6 0 10 -37 10 -90 0 -73 3 -90 15 -90
11 0 15 12 15 46 0 38 3 45 18 42 9 -2 26 -20 37 -40 22 -41 43 -54 59 -38 7
7 5 14 -5 22 -9 7 -23 25 -31 39 -15 24 -15 26 3 37 25 16 24 57 -1 82 -26 26
-130 30 -130 5z m118 -38 c5 -25 -16 -47 -44 -47 -21 0 -24 5 -24 39 0 38 0
38 32 32 20 -4 34 -14 36 -24z"/>
<path d="M677 433 c-2 -4 -15 -39 -27 -78 -12 -38 -29 -77 -36 -86 -19 -22
-17 -41 3 -37 10 2 24 16 31 31 11 22 20 27 50 27 33 0 39 -4 49 -30 6 -17 18
-30 27 -30 18 0 20 13 6 38 -6 9 -23 51 -39 92 -26 68 -51 96 -64 73z m38 -80
c6 -31 5 -33 -19 -33 -29 0 -31 4 -15 49 13 37 24 31 34 -16z"/>
<path d="M860 350 c0 -53 -4 -90 -10 -90 -5 0 -10 -7 -10 -16 0 -10 7 -14 23
-12 20 3 22 9 25 81 l3 78 53 -78 c29 -43 59 -78 66 -78 10 0 12 22 11 88 -1
56 2 87 8 87 6 0 11 7 11 15 0 8 -9 15 -20 15 -26 0 -34 -35 -25 -106 5 -40 3
-54 -4 -50 -6 4 -11 11 -11 16 0 18 -92 140 -106 140 -11 0 -14 -19 -14 -90z"/>
<path d="M1100 430 c0 -6 6 -13 13 -15 8 -4 12 -29 12 -80 0 -53 -4 -75 -12
-75 -7 0 -13 -6 -13 -14 0 -11 10 -14 34 -13 41 3 56 14 32 23 -23 9 -24 149
0 158 8 3 12 10 9 16 -8 13 -75 13 -75 0z"/>
<path d="M1269 411 c-65 -65 -18 -181 73 -181 40 0 86 36 97 76 29 104 -94
180 -170 105z m124 -19 c25 -22 23 -86 -5 -112 -47 -44 -118 -8 -118 60 0 68
70 98 123 52z"/>
<path d="M1527 388 c-4 -29 -7 -70 -7 -90 0 -21 -4 -38 -10 -38 -5 0 -10 -7
-10 -15 0 -8 6 -15 13 -15 26 0 37 25 37 88 0 35 4 61 9 58 5 -3 17 -29 27
-56 23 -64 40 -62 68 7 11 29 24 53 29 53 4 0 7 -31 7 -69 0 -68 7 -81 41 -81
12 0 12 27 -1 32 -5 2 -13 42 -16 91 -6 76 -9 87 -25 87 -11 0 -19 -4 -19 -9
0 -5 -12 -35 -26 -67 l-26 -59 -27 65 c-36 84 -56 89 -64 18z"/>
<path d="M1790 425 c0 -8 5 -15 10 -15 6 0 10 -35 10 -84 0 -93 -2 -91 75 -91
44 0 50 3 53 23 2 15 -2 22 -12 22 -9 0 -16 -4 -16 -10 0 -5 -16 -10 -35 -10
-33 0 -35 2 -35 34 0 34 1 35 35 29 28 -4 35 -2 35 11 0 12 -9 16 -35 16 -32
0 -35 2 -35 30 0 27 3 30 34 30 19 0 36 -5 38 -12 7 -20 26 1 21 22 -5 18 -14
20 -74 20 -55 0 -69 -3 -69 -15z"/>
<path d="M1990 415 c0 -29 -1 -29 36 -10 l29 15 3 -95 c2 -75 6 -95 17 -95 12
0 15 18 15 90 0 89 0 90 25 90 14 0 25 -4 25 -10 0 -5 7 -10 16 -10 10 0 14 7
12 23 -3 21 -8 22 -90 25 l-88 3 0 -26z"/>
<path d="M2220 425 c0 -8 5 -15 10 -15 6 0 10 -37 10 -90 0 -73 3 -90 15 -90
11 0 15 12 15 45 0 31 4 45 13 45 16 0 47 -32 47 -48 0 -15 29 -42 46 -42 8 0
14 7 14 15 0 8 -4 15 -10 15 -5 0 -17 14 -25 31 -15 28 -15 32 -1 48 21 24 20
64 -2 84 -25 23 -132 24 -132 2z m118 -38 c5 -25 -16 -47 -44 -47 -21 0 -24 5
-24 39 0 38 0 38 32 32 20 -4 34 -14 36 -24z"/>
<path d="M2440 425 c0 -8 5 -15 10 -15 6 0 10 -32 10 -75 0 -43 -4 -75 -10
-75 -5 0 -10 -6 -10 -13 0 -8 13 -13 35 -14 24 -1 35 3 35 13 0 8 -4 14 -10
14 -6 0 -10 32 -10 75 0 43 4 75 10 75 6 0 10 7 10 15 0 10 -11 15 -35 15 -24
0 -35 -5 -35 -15z"/>
<path d="M2560 430 c0 -5 6 -13 13 -17 7 -4 23 -22 35 -39 l21 -31 -34 -54
c-19 -30 -29 -56 -24 -58 15 -5 45 26 60 60 l12 31 29 -46 c15 -25 35 -46 43
-46 21 0 20 4 -20 58 l-34 48 25 37 c13 20 29 37 34 37 6 0 10 7 10 15 0 30
-39 15 -62 -24 l-24 -39 -22 39 c-14 25 -30 39 -42 39 -11 0 -20 -4 -20 -10z"/>
</g>
</svg>
